OpenSans-Bold.ufo
<glyph name="exclam" format="1">
  <advance width="527"/>
  <unicode hex="0021"/>
  <outline>
    <contour>
      <point x="374" y="436" type="line"/>
      <point x="155" y="436" type="line"/>
      <point x="109" y="1316" type="line"/>
      <point x="420" y="1316" type="line"/>
    </contour>
    <contour>
      <point x="105" y="129" type="curve" smooth="yes"/>
      <point x="105" y="229"/>
      <point x="160" y="282"/>
      <point x="264" y="282" type="curve" smooth="yes"/>
      <point x="363" y="282"/>
      <point x="420" y="226"/>
      <point x="420" y="129" type="curve" smooth="yes"/>
      <point x="420" y="34"/>
      <point x="361" y="-24"/>
      <point x="264" y="-24" type="curve" smooth="yes"/>
      <point x="163" y="-24"/>
      <point x="105" y="32"/>
    </contour>
  </outline>
</glyph>
<glyph name="quotedbl" format="1">
  <advance width="870"/>
  <unicode hex="0022"/>
  <outline>
    <contour>
      <point x="371" y="1316" type="line"/>
      <point x="334" y="841" type="line"/>
      <point x="157" y="841" type="line"/>
      <point x="120" y="1316" type="line"/>
    </contour>
    <contour>
      <point x="751" y="1316" type="line"/>
      <point x="714" y="841" type="line"/>
      <point x="536" y="841" type="line"/>
      <point x="499" y="1316" type="line"/>
    </contour>
  </outline>
</glyph>
<glyph name="quotesingle" format="1">
  <advance width="490"/>
  <unicode hex="0027"/>
  <outline>
    <contour>
      <point x="371" y="1316" type="line"/>
      <point x="334" y="841" type="line"/>
      <point x="157" y="841" type="line"/>
      <point x="120" y="1316" type="line"/>
    </contour>
  </outline>
</glyph>
<glyph name="plus" format="1">
  <advance width="1052"/>
  <unicode hex="002B"/>
  <outline>
    <contour>
      <point x="427" y="551" type="line"/>
      <point x="79" y="551" type="line"/>
      <point x="79" y="748" type="line"/>
      <point x="427" y="748" type="line"/>
      <point x="427" y="1099" type="line"/>
      <point x="625" y="1099" type="line"/>
      <point x="625" y="748" type="line"/>
      <point x="973" y="748" type="line"/>
      <point x="973" y="551" type="line"/>
      <point x="625" y="551" type="line"/>
      <point x="625" y="204" type="line"/>
      <point x="427" y="204" type="line"/>
    </contour>
  </outline>
</glyph>
<glyph name="hyphen" format="1">
  <advance width="593"/>
  <unicode hex="002D"/>
  <outline>
    <contour>
      <point x="55" y="382" type="line"/>
      <point x="55" y="607" type="line"/>
      <point x="538" y="607" type="line"/>
      <point x="538" y="382" type="line"/>
    </contour>
  </outline>
</glyph>
<glyph name="slash" format="1">
  <advance width="761"/>
  <unicode hex="002F"/>
  <outline>
    <contour>
      <point x="752" y="1316" type="line"/>
      <point x="262" y="0" type="line"/>
      <point x="13" y="0" type="line"/>
      <point x="503" y="1316" type="line"/>
    </contour>
  </outline>
</glyph>
<glyph name="semicolon" format="1">
  <advance width="535"/>
  <unicode hex="003B"/>
  <outline>
    <contour>
      <point x="400" y="214" type="line"/>
      <point x="413" y="193" type="line"/>
      <point x="382" y="72"/>
      <point x="329" y="-71"/>
      <point x="255" y="-238" type="curve"/>
      <point x="57" y="-238" type="line"/>
      <point x="96" y="-78"/>
      <point x="126" y="73"/>
      <point x="148" y="214" type="curve"/>
    </contour>
    <contour>
      <point x="105" y="872" type="curve" smooth="yes"/>
      <point x="105" y="973"/>
      <point x="160" y="1025"/>
      <point x="264" y="1025" type="curve" smooth="yes"/>
      <point x="363" y="1025"/>
      <point x="420" y="971"/>
      <point x="420" y="872" type="curve" smooth="yes"/>
      <point x="420" y="775"/>
      <point x="361" y="719"/>
      <point x="264" y="719" type="curve" smooth="yes"/>
      <point x="163" y="719"/>
      <point x="105" y="773"/>
    </contour>
  </outline>
</glyph>
<glyph name="at" format="1">
  <advance width="1653"/>
  <unicode hex="0040"/>
  <outline>
    <contour>
      <point x="1561" y="677" type="curve"/>
      <point x="1564" y="418"/>
      <point x="1426" y="204"/>
      <point x="1228" y="210" type="curve"/>
      <point x="1139" y="210"/>
      <point x="1065" y="257"/>
      <point x="1036" y="326" type="curve"/>
      <point x="1021" y="326" type="line"/>
      <point x="956" y="249"/>
      <point x="874" y="210"/>
      <point x="774" y="210" type="curve" smooth="yes"/>
      <point x="668" y="210"/>
      <point x="584" y="242"/>
      <point x="523" y="305" type="curve" smooth="yes"/>
      <point x="462" y="369"/>
      <point x="431" y="457"/>
      <point x="431" y="568" type="curve" smooth="yes"/>
      <point x="431" y="695"/>
      <point x="471" y="797"/>
      <point x="551" y="874" type="curve" smooth="yes"/>
      <point x="632" y="951"/>
      <point x="737" y="990"/>
      <point x="867" y="990" type="curve" smooth="yes"/>
      <point x="918" y="990"/>
      <point x="975" y="985"/>
      <point x="1037" y="975" type="curve" smooth="yes"/>
      <point x="1099" y="965"/>
      <point x="1150" y="953"/>
      <point x="1191" y="940" type="curve"/>
      <point x="1170" y="499" type="line"/>
      <point x="1170" y="416"/>
      <point x="1193" y="374"/>
      <point x="1238" y="374" type="curve" smooth="yes"/>
      <point x="1277" y="374"/>
      <point x="1307" y="402"/>
      <point x="1330" y="458" type="curve" smooth="yes"/>
      <point x="1353" y="515"/>
      <point x="1364" y="588"/>
      <point x="1364" y="679" type="curve"/>
      <point x="1369" y="969"/>
      <point x="1165" y="1169"/>
      <point x="885" y="1163" type="curve"/>
      <point x="522" y="1168"/>
      <point x="289" y="917"/>
      <point x="292" y="547" type="curve"/>
      <point x="292" y="216"/>
      <point x="473" y="33"/>
      <point x="809" y="33" type="curve" smooth="yes"/>
      <point x="936" y="33"/>
      <point x="1096" y="63"/>
      <point x="1244" y="116" type="curve"/>
      <point x="1244" y="-57" type="line"/>
      <point x="1115" y="-112"/>
      <point x="973" y="-139"/>
      <point x="816" y="-139" type="curve" smooth="yes"/>
      <point x="588" y="-139"/>
      <point x="410" y="-79"/>
      <point x="283" y="41" type="curve" smooth="yes"/>
      <point x="156" y="161"/>
      <point x="92" y="328"/>
      <point x="92" y="542" type="curve" smooth="yes"/>
      <point x="92" y="690"/>
      <point x="124" y="824"/>
      <point x="189" y="945" type="curve" smooth="yes"/>
      <point x="254" y="1066"/>
      <point x="347" y="1161"/>
      <point x="467" y="1230" type="curve" smooth="yes"/>
      <point x="588" y="1299"/>
      <point x="726" y="1333"/>
      <point x="883" y="1333" type="curve" smooth="yes"/>
      <point x="1015" y="1333"/>
      <point x="1133" y="1306"/>
      <point x="1236" y="1252" type="curve" smooth="yes"/>
      <point x="1444" y="1144"/>
      <point x="1561" y="937"/>
    </contour>
    <contour>
      <point x="640" y="564" type="curve" smooth="yes"/>
      <point x="640" y="437"/>
      <point x="692" y="374"/>
      <point x="795" y="374" type="curve" smooth="yes"/>
      <point x="903" y="374"/>
      <point x="957" y="446"/>
      <point x="969" y="617" type="curve"/>
      <point x="981" y="816" type="line"/>
      <point x="950" y="823"/>
      <point x="916" y="826"/>
      <point x="877" y="826" type="curve" smooth="yes"/>
      <point x="728" y="826"/>
      <point x="640" y="727"/>
    </contour>
  </outline>
</glyph>
<glyph name="D" format="1">
  <advance width="1364"/>
  <unicode hex="0044"/>
  <outline>
    <contour>
      <point x="1257" y="670" type="curve" smooth="yes"/>
      <point x="1257" y="454"/>
      <point x="1195" y="288"/>
      <point x="1072" y="173" type="curve" smooth="yes"/>
      <point x="949" y="58"/>
      <point x="771" y="0"/>
      <point x="538" y="0" type="curve" smooth="yes"/>
      <point x="166" y="0" type="line"/>
      <point x="166" y="1316" type="line"/>
      <point x="579" y="1316" type="line" smooth="yes"/>
      <point x="794" y="1316"/>
      <point x="960" y="1259"/>
      <point x="1079" y="1146" type="curve" smooth="yes"/>
      <point x="1198" y="1033"/>
      <point x="1257" y="874"/>
    </contour>
    <contour>
      <point x="967" y="663" type="curve" smooth="yes"/>
      <point x="967" y="946"/>
      <point x="842" y="1087"/>
      <point x="593" y="1087" type="curve" smooth="yes"/>
      <point x="445" y="1087" type="line"/>
      <point x="445" y="230" type="line"/>
      <point x="564" y="230" type="line" smooth="yes"/>
      <point x="833" y="230"/>
      <point x="967" y="374"/>
    </contour>
  </outline>
</glyph>
<glyph name="K" format="1">
  <advance width="1224"/>
  <unicode hex="004B"/>
  <outline>
    <contour>
      <point x="1224" y="0" type="line"/>
      <point x="907" y="0" type="line"/>
      <point x="562" y="554" type="line"/>
      <point x="445" y="470" type="line"/>
      <point x="445" y="0" type="line"/>
      <point x="166" y="0" type="line"/>
      <point x="166" y="1316" type="line"/>
      <point x="445" y="1316" type="line"/>
      <point x="445" y="714" type="line"/>
      <point x="554" y="868" type="line"/>
      <point x="911" y="1316" type="line"/>
      <point x="1220" y="1316" type="line"/>
      <point x="761" y="733" type="line"/>
    </contour>
  </outline>
</glyph>
<glyph name="O" format="1">
  <advance width="1467"/>
  <unicode hex="004F"/>
  <outline>
    <contour>
      <point x="1360" y="660" type="curve" smooth="yes"/>
      <point x="1360" y="442"/>
      <point x="1306" y="274"/>
      <point x="1198" y="157" type="curve" smooth="yes"/>
      <point x="1090" y="40"/>
      <point x="935" y="-18"/>
      <point x="733" y="-18" type="curve" smooth="yes"/>
      <point x="532" y="-18"/>
      <point x="377" y="40"/>
      <point x="269" y="157" type="curve" smooth="yes"/>
      <point x="161" y="274"/>
      <point x="107" y="442"/>
      <point x="107" y="661" type="curve" smooth="yes"/>
      <point x="107" y="880"/>
      <point x="161" y="1048"/>
      <point x="269" y="1163" type="curve" smooth="yes"/>
      <point x="378" y="1278"/>
      <point x="533" y="1336"/>
      <point x="735" y="1336" type="curve" smooth="yes"/>
      <point x="938" y="1336"/>
      <point x="1092" y="1278"/>
      <point x="1199" y="1161" type="curve" smooth="yes"/>
      <point x="1306" y="1045"/>
      <point x="1360" y="878"/>
    </contour>
    <contour>
      <point x="400" y="660" type="curve" smooth="yes"/>
      <point x="400" y="365"/>
      <point x="512" y="216"/>
      <point x="733" y="216" type="curve" smooth="yes"/>
      <point x="956" y="216"/>
      <point x="1067" y="364"/>
      <point x="1067" y="660" type="curve" smooth="yes"/>
      <point x="1067" y="956"/>
      <point x="956" y="1104"/>
      <point x="735" y="1104" type="curve" smooth="yes"/>
      <point x="514" y="1104"/>
      <point x="400" y="953"/>
    </contour>
  </outline>
</glyph>
<glyph name="R" format="1">
  <advance width="1217"/>
  <unicode hex="0052"/>
  <outline>
    <contour>
      <point x="445" y="732" type="line"/>
      <point x="535" y="732" type="line" smooth="yes"/>
      <point x="711" y="732"/>
      <point x="793" y="789"/>
      <point x="793" y="914" type="curve" smooth="yes"/>
      <point x="793" y="1039"/>
      <point x="709" y="1087"/>
      <point x="529" y="1087" type="curve" smooth="yes"/>
      <point x="445" y="1087" type="line"/>
    </contour>
    <contour>
      <point x="445" y="505" type="line"/>
      <point x="445" y="0" type="line"/>
      <point x="166" y="0" type="line"/>
      <point x="166" y="1316" type="line"/>
      <point x="549" y="1316" type="line" smooth="yes"/>
      <point x="906" y="1316"/>
      <point x="1075" y="1186"/>
      <point x="1075" y="922" type="curve" smooth="yes"/>
      <point x="1075" y="766"/>
      <point x="986" y="642"/>
      <point x="830" y="573" type="curve"/>
      <point x="1028" y="278"/>
      <point x="1157" y="87"/>
      <point x="1217" y="0" type="curve"/>
      <point x="907" y="0" type="line"/>
      <point x="593" y="505" type="line"/>
    </contour>
  </outline>
</glyph>
<glyph name="bracketright" format="1">
  <advance width="610"/>
  <unicode hex="005D"/>
  <outline>
    <contour>
      <point x="46" y="-102" type="line"/>
      <point x="247" y="-102" type="line"/>
      <point x="247" y="1126" type="line"/>
      <point x="46" y="1126" type="line"/>
      <point x="46" y="1316" type="line"/>
      <point x="481" y="1316" type="line"/>
      <point x="481" y="-292" type="line"/>
      <point x="46" y="-292" type="line"/>
    </contour>
  </outline>
</glyph>
<glyph name="grave" format="1">
  <advance width="1119"/>
  <unicode hex="0060"/>
  <outline>
    <contour>
      <point x="636" y="1117" type="line"/>
      <point x="599" y="1143"/>
      <point x="543" y="1186"/>
      <point x="470" y="1245" type="curve" smooth="yes"/>
      <point x="397" y="1304"/>
      <point x="340" y="1354"/>
      <point x="299" y="1393" type="curve"/>
      <point x="299" y="1412" type="line"/>
      <point x="607" y="1412" type="line"/>
      <point x="644" y="1351"/>
      <point x="715" y="1261"/>
      <point x="818" y="1141" type="curve"/>
      <point x="818" y="1117" type="line"/>
    </contour>
  </outline>
</glyph>
<glyph name="g" format="1">
  <advance width="1041"/>
  <unicode hex="0067"/>
  <outline>
    <contour>
      <point x="1020" y="1006" type="line"/>
      <point x="1020" y="867" type="line"/>
      <point x="862" y="826" type="line"/>
      <point x="891" y="781"/>
      <point x="905" y="731"/>
      <point x="905" y="675" type="curve" smooth="yes"/>
      <point x="905" y="567"/>
      <point x="867" y="483"/>
      <point x="792" y="422" type="curve" smooth="yes"/>
      <point x="717" y="362"/>
      <point x="612" y="332"/>
      <point x="479" y="332" type="curve"/>
      <point x="429" y="335" type="line"/>
      <point x="389" y="339" type="line"/>
      <point x="360" y="318"/>
      <point x="346" y="294"/>
      <point x="346" y="267" type="curve" smooth="yes"/>
      <point x="346" y="228"/>
      <point x="397" y="208"/>
      <point x="498" y="208" type="curve" smooth="yes"/>
      <point x="669" y="208" type="line" smooth="yes"/>
      <point x="889" y="208"/>
      <point x="1008" y="112"/>
      <point x="1008" y="-72" type="curve" smooth="yes"/>
      <point x="1008" y="-189"/>
      <point x="959" y="-280"/>
      <point x="861" y="-345" type="curve" smooth="yes"/>
      <point x="763" y="-410"/>
      <point x="622" y="-443"/>
      <point x="438" y="-443" type="curve" smooth="yes"/>
      <point x="158" y="-443"/>
      <point x="5" y="-340"/>
      <point x="5" y="-164" type="curve" smooth="yes"/>
      <point x="5" y="-43"/>
      <point x="82" y="40"/>
      <point x="229" y="76" type="curve"/>
      <point x="172" y="100"/>
      <point x="123" y="160"/>
      <point x="123" y="221" type="curve" smooth="yes"/>
      <point x="123" y="298"/>
      <point x="169" y="343"/>
      <point x="253" y="392" type="curve"/>
      <point x="148" y="439"/>
      <point x="81" y="544"/>
      <point x="81" y="680" type="curve" smooth="yes"/>
      <point x="81" y="900"/>
      <point x="229" y="1025"/>
      <point x="494" y="1025" type="curve" smooth="yes"/>
      <point x="522" y="1025"/>
      <point x="555" y="1022"/>
      <point x="594" y="1017" type="curve" smooth="yes"/>
      <point x="633" y="1012"/>
      <point x="658" y="1009"/>
      <point x="669" y="1006" type="curve"/>
    </contour>
    <contour>
      <point x="243" y="-142" type="curve" smooth="yes"/>
      <point x="243" y="-218"/>
      <point x="319" y="-264"/>
      <point x="450" y="-264" type="curve" smooth="yes"/>
      <point x="647" y="-264"/>
      <point x="765" y="-206"/>
      <point x="765" y="-113" type="curve" smooth="yes"/>
      <point x="765" y="-37"/>
      <point x="701" y="-13"/>
      <point x="562" y="-13" type="curve" smooth="yes"/>
      <point x="420" y="-13" type="line" smooth="yes"/>
      <point x="370" y="-13"/>
      <point x="328" y="-25"/>
      <point x="294" y="-48" type="curve" smooth="yes"/>
      <point x="260" y="-72"/>
      <point x="243" y="-103"/>
    </contour>
    <contour>
      <point x="343" y="677" type="curve" smooth="yes"/>
      <point x="343" y="568"/>
      <point x="393" y="499"/>
      <point x="494" y="499" type="curve" smooth="yes"/>
      <point x="597" y="499"/>
      <point x="643" y="568"/>
      <point x="643" y="677" type="curve" smooth="yes"/>
      <point x="643" y="798"/>
      <point x="593" y="859"/>
      <point x="494" y="859" type="curve" smooth="yes"/>
      <point x="393" y="859"/>
      <point x="343" y="798"/>
    </contour>
  </outline>
</glyph>
<glyph name="u" format="1">
  <advance width="1211"/>
  <unicode hex="0075"/>
  <outline>
    <contour>
      <point x="857" y="0" type="line"/>
      <point x="820" y="129" type="line"/>
      <point x="805" y="129" type="line"/>
      <point x="746" y="34"/>
      <point x="633" y="-18"/>
      <point x="496" y="-18" type="curve" smooth="yes"/>
      <point x="260" y="-18"/>
      <point x="139" y="113"/>
      <point x="139" y="350" type="curve" smooth="yes"/>
      <point x="139" y="1006" type="line"/>
      <point x="413" y="1006" type="line"/>
      <point x="413" y="418" type="line" smooth="yes"/>
      <point x="413" y="274"/>
      <point x="462" y="201"/>
      <point x="575" y="201" type="curve" smooth="yes"/>
      <point x="652" y="201"/>
      <point x="707" y="227"/>
      <point x="741" y="278" type="curve" smooth="yes"/>
      <point x="776" y="329"/>
      <point x="793" y="414"/>
      <point x="793" y="533" type="curve" smooth="yes"/>
      <point x="793" y="1006" type="line"/>
      <point x="1067" y="1006" type="line"/>
      <point x="1067" y="0" type="line"/>
    </contour>
  </outline>
</glyph>
<glyph name="braceleft" format="1">
  <advance width="726"/>
  <unicode hex="007B"/>
  <outline>
    <contour>
      <point x="258" y="243" type="line" smooth="yes"/>
      <point x="258" y="347"/>
      <point x="177" y="404"/>
      <point x="28" y="404" type="curve"/>
      <point x="28" y="619" type="line"/>
      <point x="179" y="619"/>
      <point x="258" y="673"/>
      <point x="258" y="772" type="curve" smooth="yes"/>
      <point x="258" y="779" type="line"/>
      <point x="258" y="1066" type="line" smooth="yes"/>
      <point x="258" y="1157"/>
      <point x="287" y="1222"/>
      <point x="345" y="1259" type="curve" smooth="yes"/>
      <point x="404" y="1297"/>
      <point x="506" y="1316"/>
      <point x="652" y="1316" type="curve"/>
      <point x="652" y="1113" type="line"/>
      <point x="533" y="1110"/>
      <point x="496" y="1069"/>
      <point x="496" y="986" type="curve" smooth="yes"/>
      <point x="496" y="717" type="line"/>
      <point x="492" y="604"/>
      <point x="422" y="538"/>
      <point x="285" y="517" type="curve"/>
      <point x="285" y="507" type="line"/>
      <point x="426" y="486"/>
      <point x="496" y="422"/>
      <point x="496" y="316" type="curve" smooth="yes"/>
      <point x="496" y="308" type="line"/>
      <point x="496" y="39" type="line" smooth="yes"/>
      <point x="496" y="-44"/>
      <point x="532" y="-85"/>
      <point x="652" y="-88" type="curve"/>
      <point x="652" y="-292" type="line"/>
      <point x="506" y="-292"/>
      <point x="404" y="-273"/>
      <point x="345" y="-235" type="curve" smooth="yes"/>
      <point x="287" y="-198"/>
      <point x="258" y="-133"/>
      <point x="258" y="-41" type="curve" smooth="yes"/>
    </contour>
  </outline>
</glyph>
<glyph name="bar" format="1">
  <advance width="1015"/>
  <unicode hex="007C"/>
  <outline>
    <contour>
      <point x="409" y="1395" type="line"/>
      <point x="607" y="1395" type="line"/>
      <point x="607" y="-419" type="line"/>
      <point x="409" y="-419" type="line"/>
    </contour>
  </outline>
</glyph>
<glyph name="braceright" format="1">
  <advance width="726"/>
  <unicode hex="007D"/>
  <outline>
    <contour>
      <point x="468" y="-41" type="line" smooth="yes"/>
      <point x="468" y="-108"/>
      <point x="456" y="-158"/>
      <point x="431" y="-192" type="curve" smooth="yes"/>
      <point x="382" y="-261"/>
      <point x="274" y="-292"/>
      <point x="74" y="-292" type="curve"/>
      <point x="74" y="-88" type="line"/>
      <point x="193" y="-85"/>
      <point x="230" y="-46"/>
      <point x="230" y="39" type="curve" smooth="yes"/>
      <point x="230" y="308" type="line"/>
      <point x="230" y="318" type="line" smooth="yes"/>
      <point x="230" y="421"/>
      <point x="303" y="486"/>
      <point x="440" y="507" type="curve"/>
      <point x="440" y="517" type="line"/>
      <point x="304" y="538"/>
      <point x="234" y="604"/>
      <point x="230" y="717" type="curve"/>
      <point x="230" y="986" type="line" smooth="yes"/>
      <point x="230" y="1070"/>
      <point x="194" y="1110"/>
      <point x="74" y="1113" type="curve"/>
      <point x="74" y="1316" type="line"/>
      <point x="376" y="1310"/>
      <point x="465" y="1262"/>
      <point x="468" y="1066" type="curve"/>
      <point x="468" y="779" type="line"/>
      <point x="468" y="770" type="line" smooth="yes"/>
      <point x="468" y="670"/>
      <point x="539" y="619"/>
      <point x="698" y="619" type="curve"/>
      <point x="698" y="404" type="line"/>
      <point x="549" y="404"/>
      <point x="468" y="359"/>
      <point x="468" y="243" type="curve" smooth="yes"/>
    </contour>
  </outline>
</glyph>
<glyph name="endash" format="1">
  <advance width="922"/>
  <unicode hex="2013"/>
  <outline>
    <contour>
      <point x="74" y="392" type="line"/>
      <point x="74" y="599" type="line"/>
      <point x="848" y="599" type="line"/>
      <point x="848" y="392" type="line"/>
    </contour>
  </outline>
</glyph>
<glyph name="afii00208" format="1">
  <advance width="1843"/>
  <unicode hex="2015"/>
  <outline>
    <contour>
      <point x="74" y="392" type="line"/>
      <point x="74" y="599" type="line"/>
      <point x="1769" y="599" type="line"/>
      <point x="1769" y="392" type="line"/>
    </contour>
  </outline>
</glyph>
<glyph name="quoteleft" format="1">
  <advance width="400"/>
  <unicode hex="2018"/>
  <outline>
    <contour>
      <point x="35" y="865" type="line"/>
      <point x="22" y="885" type="line"/>
      <point x="35" y="940"/>
      <point x="57" y="1008"/>
      <point x="87" y="1090" type="curve" smooth="yes"/>
      <point x="118" y="1173"/>
      <point x="149" y="1248"/>
      <point x="181" y="1316" type="curve"/>
      <point x="378" y="1316" type="line"/>
      <point x="339" y="1155"/>
      <point x="308" y="1005"/>
      <point x="287" y="865" type="curve"/>
    </contour>
  </outline>
</glyph>
<glyph name="I.alt" format="1">
  <advance width="717"/>
  <outline>
    <contour>
      <point x="658" y="0" type="line"/>
      <point x="59" y="0" type="line"/>
      <point x="59" y="158" type="line"/>
      <point x="220" y="232" type="line"/>
      <point x="220" y="1084" type="line"/>
      <point x="59" y="1157" type="line"/>
      <point x="59" y="1316" type="line"/>
      <point x="658" y="1316" type="line"/>
      <point x="658" y="1157" type="line"/>
      <point x="498" y="1084" type="line"/>
      <point x="498" y="232" type="line"/>
      <point x="658" y="158" type="line"/>
    </contour>
  </outline>
</glyph>
<glyph name=".notdef" format="1">
  <advance width="1106"/>
  <outline>
    <contour>
      <point x="174" y="1316" type="line"/>
      <point x="931" y="1316" type="line"/>
      <point x="931" y="0" type="line"/>
      <point x="174" y="0" type="line"/>
    </contour>
    <contour>
      <point x="267" y="94" type="line"/>
      <point x="837" y="94" type="line"/>
      <point x="837" y="1222" type="line"/>
      <point x="267" y="1222" type="line"/>
    </contour>
  </outline>
</glyph>
